<?xml version="1.0" encoding="utf-8"?>
<!-- Generator: Adobe Illustrator 15.1.0, SVG Export Plug-In . SVG Version: 6.00 Build 0)  -->
<!DOCTYPE svg PUBLIC "-//W3C//DTD SVG 1.1//EN" "http://www.w3.org/Graphics/SVG/1.1/DTD/svg11.dtd">
<svg version="1.1" xmlns="http://www.w3.org/2000/svg" xmlns:xlink="http://www.w3.org/1999/xlink" x="0px" y="0px" width="108px"
	 height="108px" viewBox="0 0 108 108" enable-background="new 0 0 108 108" xml:space="preserve">
<g id="Layer_1" display="none">
	<g id="Layer_1_1_">
		
			<rect x="-0.098" display="inline" fill="none" stroke="#231F20" stroke-width="0.25" stroke-miterlimit="10" width="108.196" height="108"/>
		<path display="inline" fill="none" stroke="#231F20" stroke-width="0.25" stroke-miterlimit="10" d="M90.986,97.323H17.015
			c-3.401,0-6.169-2.777-6.169-6.192V16.869c0-3.415,2.768-6.193,6.169-6.193h73.971c3.4,0,6.168,2.778,6.168,6.193v74.262
			C97.154,94.546,94.387,97.323,90.986,97.323z"/>
		<path display="inline" fill="none" stroke="#231F20" stroke-width="0.25" stroke-miterlimit="10" d="M85.094,104.061H22.906
			c-2.86,0-5.186-3.209-5.186-7.154v-85.81c0-3.946,2.326-7.155,5.186-7.155h62.188c2.859,0,5.188,3.209,5.188,7.155v85.81
			C90.282,100.852,87.954,104.061,85.094,104.061z"/>
		<path display="inline" fill="none" stroke="#231F20" stroke-width="0.25" stroke-miterlimit="10" d="M96.85,90.156H11.151
			c-3.94,0-7.146-2.318-7.146-5.168V23.012c0-2.85,3.206-5.168,7.146-5.168H96.85c3.939,0,7.146,2.318,7.146,5.168v61.977
			C103.997,87.838,100.79,90.156,96.85,90.156z"/>
		
			<circle display="inline" fill="none" stroke="#231F20" stroke-width="0.25" stroke-miterlimit="10" cx="54.001" cy="54" r="22.838"/>
		<circle display="inline" fill="none" stroke="#231F20" stroke-width="0.25" stroke-miterlimit="10" cx="54" cy="54" r="50.059"/>
		
			<line display="inline" fill="none" stroke="#231F20" stroke-width="0.25" stroke-miterlimit="10" x1="-0.098" y1="0" x2="108.098" y2="108"/>
		
			<line display="inline" fill="none" stroke="#231F20" stroke-width="0.25" stroke-miterlimit="10" x1="108.098" y1="0" x2="-0.098" y2="108"/>
		
			<line display="inline" fill="none" stroke="#231F20" stroke-width="0.25" stroke-miterlimit="10" x1="54" y1="0.041" x2="54" y2="108.334"/>
		
			<line display="inline" fill="none" stroke="#231F20" stroke-width="0.25" stroke-miterlimit="10" x1="37.798" y1="0.041" x2="37.798" y2="108.334"/>
		
			<line display="inline" fill="none" stroke="#231F20" stroke-width="0.25" stroke-miterlimit="10" x1="69.641" y1="0.041" x2="69.641" y2="108.334"/>
		
			<line display="inline" fill="none" stroke="#231F20" stroke-width="0.25" stroke-miterlimit="10" x1="-0.098" y1="54" x2="108.098" y2="54"/>
		
			<line display="inline" fill="none" stroke="#231F20" stroke-width="0.25" stroke-miterlimit="10" x1="-0.098" y1="70.09" x2="108.219" y2="70.09"/>
		
			<line display="inline" fill="none" stroke="#231F20" stroke-width="0.25" stroke-miterlimit="10" x1="-0.098" y1="38.247" x2="108.098" y2="38.247"/>
	</g>
	<g id="Layer_3" display="inline">
		<rect fill="#2E7D32" width="108" height="108"/>
	</g>
</g>
<g id="Layer_2_1_">
	<g id="Layer_2">
		<g>
			<polygon fill="#296B29" points="108,73.08 108,108 74.67,108 24.121,41.3 54.334,38.334 83.88,41.311 			"/>
		</g>
		<path display="none" fill="none" stroke="#009900" stroke-width="0.5" stroke-miterlimit="10" d="M90.282,78.281
			c0,6.628-5.373,12-12,12H29.719c-6.627,0-12-5.372-12-12V29.719c0-6.627,5.373-12,12-12h48.563c6.627,0,12,5.373,12,12V78.281z"/>
		<g>
			<g>
				<path fill="#FFFFFF" d="M83.882,41.307l-5.466,7.214c-4.607-3.503-9.98-6.038-15.826-7.308
					c-2.775-0.602-5.652-0.919-8.597-0.919c-2.947,0-5.822,0.317-8.598,0.919c-5.838,1.27-11.211,3.805-15.811,7.3l-5.467-7.214
					c0.039-0.03,0.078-0.062,0.116-0.086c8.28-6.253,18.587-9.949,29.759-9.949c11.171,0,21.479,3.696,29.757,9.949
					C83.797,41.237,83.843,41.275,83.882,41.307z"/>
				<path fill="#FFFFFF" d="M62.466,69.564l-8.441,11.147L54,80.736l-8.473-11.18c2.35-1.785,5.28-2.845,8.466-2.845
					C57.177,66.713,60.116,67.771,62.466,69.564z"/>
				<path fill="#FFFFFF" d="M73.273,55.309l-5.674,7.49c-3.779-2.883-8.496-4.592-13.605-4.592c-5.104,0-9.812,1.709-13.592,4.584
					l-5.675-7.498c5.357-4.075,12.037-6.494,19.267-6.494C61.23,48.799,67.917,51.218,73.273,55.309z"/>
			</g>
		</g>
	</g>
</g>
</svg>
