<?xml version="1.0" encoding="utf-8"?>
<!-- Generator: Adobe Illustrator 15.1.0, SVG Export Plug-In . SVG Version: 6.00 Build 0)  -->
<!DOCTYPE svg PUBLIC "-//W3C//DTD SVG 1.1//EN" "http://www.w3.org/Graphics/SVG/1.1/DTD/svg11.dtd">
<svg version="1.1" id="Layer_2" xmlns="http://www.w3.org/2000/svg" xmlns:xlink="http://www.w3.org/1999/xlink" x="0px" y="0px"
	 width="1000px" height="1000px" viewBox="0 0 1000 1000" enable-background="new 0 0 1000 1000" xml:space="preserve">
<g>
	<path d="M499.949,74.046c234.93,0,426.057,191.085,426.057,425.954c0,14.745-0.766,29.791-2.256,44.621
		c-18.135,173.596-143.547,320.899-312.098,366.535c-36.152,9.816-73.73,14.798-111.703,14.798
		C265.08,925.954,73.994,734.868,73.994,500C73.994,265.131,265.08,74.046,499.949,74.046 M499.949,42.234
		C247.156,42.234,42.184,247.207,42.184,500c0,252.793,204.973,457.766,457.766,457.766c41.566,0,81.754-5.51,120.039-15.906
		c179.725-48.67,315.566-204.02,335.396-393.936c1.584-15.688,2.432-31.697,2.432-47.924
		C957.816,247.207,752.846,42.234,499.949,42.234L499.949,42.234z"/>
	<g>
		<path d="M816.852,365.402l-57.959,76.495c-48.867-37.145-105.842-64.027-167.816-77.488c-29.43-6.379-59.938-9.745-91.158-9.745
			c-31.252,0-61.738,3.366-91.168,9.745c-61.904,13.461-118.879,40.344-167.652,77.405l-57.969-76.494
			c0.414-0.321,0.828-0.653,1.232-0.911c87.803-66.305,197.092-105.5,315.557-105.5c118.453,0,227.742,39.195,315.535,105.5
			C815.949,364.667,816.438,365.07,816.852,365.402z"/>
		<path d="M589.76,665.042l-89.512,118.216l-0.258,0.249l-89.844-118.548c24.916-18.929,55.992-30.154,89.771-30.154
			C533.676,634.805,564.836,646.03,589.76,665.042z"/>
		<path d="M704.361,513.876l-60.174,79.425c-40.064-30.569-90.092-48.69-144.27-48.69c-54.117,0-104.039,18.121-144.125,48.607
			l-60.174-79.508c56.809-43.202,127.639-68.863,204.299-68.863C576.65,444.847,647.553,470.508,704.361,513.876z"/>
	</g>
</g>
</svg>
