<?xml version="1.0" encoding="utf-8"?>
<!-- Generator: Adobe Illustrator 15.1.0, SVG Export Plug-In . SVG Version: 6.00 Build 0)  -->
<!DOCTYPE svg PUBLIC "-//W3C//DTD SVG 1.1//EN" "http://www.w3.org/Graphics/SVG/1.1/DTD/svg11.dtd">
<svg version="1.1" id="Layer_2" xmlns="http://www.w3.org/2000/svg" xmlns:xlink="http://www.w3.org/1999/xlink" x="0px" y="0px"
	 width="1000px" height="1000px" viewBox="0 0 1000 1000" enable-background="new 0 0 1000 1000" xml:space="preserve">
<g>
	<g>
		<path fill="#2E7D32" d="M153.629,416.271c42.85,0,77.709,34.853,77.709,77.69c0,2.689-0.141,5.434-0.412,8.139
			c-3.307,31.663-26.182,58.529-56.924,66.854c-6.594,1.79-13.449,2.698-20.373,2.698c-42.84,0-77.691-34.853-77.691-77.69
			S110.789,416.271,153.629,416.271 M153.629,410.469c-46.109,0-83.494,37.385-83.494,83.492s37.385,83.492,83.494,83.492
			c7.58,0,14.91-1.005,21.893-2.9c32.781-8.877,57.557-37.211,61.174-71.851c0.289-2.861,0.443-5.782,0.443-8.741
			C237.139,447.854,199.754,410.469,153.629,410.469L153.629,410.469z"/>
		<g>
			<path fill="#2E7D32" d="M211.43,469.411l-10.572,13.952c-8.912-6.775-19.305-11.678-30.607-14.134
				c-5.369-1.163-10.934-1.777-16.627-1.777c-5.701,0-11.262,0.614-16.629,1.777c-11.291,2.456-21.684,7.358-30.578,14.119
				l-10.574-13.952c0.076-0.059,0.152-0.119,0.227-0.167c16.014-12.093,35.947-19.241,57.555-19.241
				c21.604,0,41.537,7.148,57.551,19.241C211.264,469.277,211.352,469.351,211.43,469.411z"/>
			<path fill="#2E7D32" d="M170.008,524.063l-16.324,21.563l-0.049,0.046l-16.385-21.623c4.543-3.452,10.211-5.5,16.373-5.5
				C159.779,518.548,165.463,520.596,170.008,524.063z"/>
			<path fill="#2E7D32" d="M190.912,496.492l-10.977,14.485c-7.307-5.575-16.432-8.88-26.313-8.88
				c-9.871,0-18.977,3.305-26.287,8.866l-10.977-14.502c10.361-7.88,23.281-12.56,37.264-12.56
				C167.617,483.902,180.551,488.582,190.912,496.492z"/>
		</g>
	</g>
	<g>
		<path fill="#2E7D32" d="M290.547,536.207l-20.35-80.209h10.949l9.52,40.58c2.381,9.996,4.521,19.992,5.949,27.729h0.238
			c1.311-7.975,3.809-17.494,6.545-27.848l10.711-40.461h10.83l9.758,40.699c2.262,9.52,4.402,19.041,5.594,27.49h0.238
			c1.666-8.807,3.926-17.732,6.426-27.729l10.59-40.461h10.592l-22.729,80.209h-10.83l-10.115-41.771
			c-2.5-10.234-4.166-18.088-5.236-26.18h-0.238c-1.428,7.973-3.213,15.828-6.188,26.18l-11.424,41.771H290.547z"/>
		<path fill="#2E7D32" d="M387.541,462.424c0.119,3.57-2.5,6.428-6.664,6.428c-3.689,0-6.307-2.857-6.307-6.428
			c0-3.688,2.736-6.545,6.545-6.545C385.041,455.879,387.541,458.736,387.541,462.424z M375.879,536.207v-57.598h10.473v57.598
			H375.879z"/>
		<path fill="#2E7D32" d="M404.084,455.998h43.197v8.688h-32.846v26.656h30.346v8.568h-30.346v36.297h-10.352V455.998z"/>
		<path fill="#2E7D32" d="M470.254,462.424c0.119,3.57-2.5,6.428-6.664,6.428c-3.689,0-6.307-2.857-6.307-6.428
			c0-3.688,2.736-6.545,6.545-6.545C467.754,455.879,470.254,458.736,470.254,462.424z M458.592,536.207v-57.598h10.473v57.598
			H458.592z"/>
		<path fill="#2E7D32" d="M524.996,510.979l-8.33,25.229h-10.711l27.252-80.209h12.496l27.371,80.209h-11.068l-8.568-25.229H524.996
			z M551.297,502.885l-7.855-23.086c-1.785-5.236-2.975-9.996-4.164-14.637h-0.238c-1.189,4.76-2.5,9.639-4.047,14.518
			l-7.854,23.205H551.297z"/>
		<path fill="#2E7D32" d="M584.146,494.199c0-5.951-0.119-10.83-0.477-15.59h9.283l0.596,9.52h0.236
			c2.857-5.475,9.521-10.828,19.041-10.828c7.973,0,20.35,4.76,20.35,24.514v34.393h-10.473v-33.203
			c0-9.281-3.451-17.018-13.328-17.018c-6.902,0-12.258,4.881-14.041,10.711c-0.477,1.309-0.715,3.094-0.715,4.879v34.631h-10.473
			V494.199z"/>
		<path fill="#2E7D32" d="M682.09,536.207l-0.834-7.26h-0.357c-3.213,4.521-9.4,8.568-17.611,8.568
			c-11.662,0-17.613-8.211-17.613-16.541c0-13.924,12.377-21.541,34.631-21.422v-1.189c0-4.76-1.309-13.328-13.09-13.328
			c-5.355,0-10.949,1.666-14.996,4.283l-2.379-6.9c4.76-3.096,11.662-5.117,18.922-5.117c17.611,0,21.896,12.018,21.896,23.563
			v21.539c0,4.998,0.238,9.877,0.951,13.805H682.09z M680.543,506.813c-11.426-0.238-24.396,1.785-24.396,12.971
			c0,6.783,4.521,9.998,9.877,9.998c7.498,0,12.258-4.762,13.924-9.641c0.357-1.07,0.596-2.26,0.596-3.332V506.813z"/>
		<path fill="#2E7D32" d="M707.559,451.715h10.473v84.492h-10.473V451.715z"/>
		<path fill="#2E7D32" d="M739.451,478.609l12.615,34.035c1.309,3.807,2.736,8.33,3.689,11.781h0.238
			c1.07-3.451,2.26-7.855,3.688-12.02l11.426-33.797h11.066l-15.709,41.057c-7.496,19.754-12.613,29.869-19.754,36.057
			c-5.117,4.523-10.234,6.307-12.852,6.783l-2.619-8.807c2.619-0.832,6.07-2.498,9.164-5.117c2.855-2.26,6.426-6.307,8.807-11.662
			c0.475-1.07,0.832-1.904,0.832-2.498c0-0.596-0.238-1.428-0.713-2.738l-21.303-53.074H739.451z"/>
		<path fill="#2E7D32" d="M785.152,530.137l26.063-33.916c2.498-3.094,4.879-5.83,7.496-8.924v-0.238h-31.178v-8.449h43.912
			l-0.119,6.545l-25.705,33.439c-2.381,3.213-4.76,6.07-7.379,9.045v0.238h33.678v8.33h-46.768V530.137z"/>
		<path fill="#2E7D32" d="M847.633,509.313c0.238,14.16,9.281,19.992,19.754,19.992c7.498,0,12.02-1.309,15.947-2.975l1.785,7.496
			c-3.689,1.666-9.998,3.57-19.16,3.57c-17.732,0-28.322-11.662-28.322-29.037s10.234-31.059,27.014-31.059
			c18.803,0,23.801,16.541,23.801,27.133c0,2.141-0.238,3.807-0.357,4.879H847.633z M878.336,501.814
			c0.117-6.664-2.738-17.018-14.52-17.018c-10.592,0-15.232,9.758-16.064,17.018H878.336z"/>
		<path fill="#2E7D32" d="M901.424,496.578c0-6.783-0.119-12.613-0.477-17.969h9.164l0.357,11.305h0.475
			c2.619-7.734,8.926-12.613,15.947-12.613c1.189,0,2.023,0.117,2.975,0.355v9.879c-1.07-0.238-2.141-0.357-3.57-0.357
			c-7.377,0-12.613,5.592-14.041,13.447c-0.238,1.428-0.477,3.094-0.477,4.879v30.703h-10.354V496.578z"/>
	</g>
</g>
</svg>
