<?xml version="1.0" encoding="utf-8"?>
<!-- Generator: Adobe Illustrator 15.1.0, SVG Export Plug-In . SVG Version: 6.00 Build 0)  -->
<!DOCTYPE svg PUBLIC "-//W3C//DTD SVG 1.1//EN" "http://www.w3.org/Graphics/SVG/1.1/DTD/svg11.dtd">
<svg version="1.1" id="Layer_2" xmlns="http://www.w3.org/2000/svg" xmlns:xlink="http://www.w3.org/1999/xlink" x="0px" y="0px"
	 width="1000px" height="1000px" viewBox="0 0 1000 1000" enable-background="new 0 0 1000 1000" xml:space="preserve">
<g>
	<g>
		<path fill="#2E7D32" d="M237.469,491.365c0,2.969-0.154,5.895-0.445,8.764c-3.625,34.736-28.467,63.148-61.334,72.049
			c-7,1.902-14.35,2.91-21.951,2.91c-46.229,0-83.713-37.488-83.713-83.723s37.484-83.721,83.713-83.721
			C199.987,407.645,237.469,445.131,237.469,491.365z"/>
		<g>
			<path fill="#296B29" d="M237.024,500.129c-3.625,34.736-28.467,63.148-61.334,72.049L95.797,466.734l58.6-5.76l57.283,5.781
				L237.024,500.129z"/>
		</g>
		<g>
			<g>
				<path fill="#FFFFFF" d="M211.692,466.748l-10.6,13.99c-8.936-6.793-19.355-11.707-30.689-14.174
					c-5.381-1.166-10.961-1.781-16.67-1.781c-5.715,0-11.291,0.615-16.672,1.781c-11.32,2.467-21.74,7.381-30.66,14.158l-10.6-13.99
					c0.074-0.059,0.15-0.119,0.225-0.168c16.057-12.125,36.043-19.293,57.707-19.293c21.662,0,41.648,7.168,57.703,19.293
					C211.526,466.613,211.616,466.688,211.692,466.748z"/>
				<path fill="#FFFFFF" d="M170.163,521.553l-16.369,21.619l-0.047,0.045l-16.43-21.682c4.557-3.461,10.238-5.514,16.416-5.514
					C159.907,516.021,165.604,518.074,170.163,521.553z"/>
				<path fill="#FFFFFF" d="M191.12,493.902l-11.004,14.527c-7.326-5.59-16.475-8.906-26.383-8.906
					c-9.896,0-19.025,3.316-26.355,8.891l-11.004-14.541c10.387-7.9,23.342-12.596,37.359-12.596
					C167.764,481.277,180.731,485.973,191.12,493.902z"/>
			</g>
		</g>
	</g>
	<g>
		<path d="M290.657,536.207l-20.35-80.209h10.949l9.52,40.58c2.381,9.996,4.521,19.992,5.949,27.729h0.238
			c1.311-7.975,3.809-17.494,6.545-27.848l10.711-40.461h10.83l9.758,40.699c2.262,9.52,4.402,19.041,5.594,27.49h0.238
			c1.666-8.807,3.926-17.732,6.426-27.729l10.59-40.461h10.592l-22.729,80.209h-10.83l-10.115-41.771
			c-2.5-10.234-4.166-18.088-5.236-26.18h-0.238c-1.428,7.973-3.213,15.828-6.188,26.18l-11.424,41.771H290.657z"/>
		<path d="M387.651,462.424c0.119,3.57-2.5,6.428-6.664,6.428c-3.689,0-6.307-2.857-6.307-6.428c0-3.688,2.736-6.545,6.545-6.545
			C385.151,455.879,387.651,458.736,387.651,462.424z M375.989,536.207v-57.598h10.473v57.598H375.989z"/>
		<path d="M404.194,455.998h43.197v8.688h-32.846v26.656h30.346v8.568h-30.346v36.297h-10.352V455.998z"/>
		<path d="M470.364,462.424c0.119,3.57-2.5,6.428-6.664,6.428c-3.689,0-6.307-2.857-6.307-6.428c0-3.688,2.736-6.545,6.545-6.545
			C467.864,455.879,470.364,458.736,470.364,462.424z M458.702,536.207v-57.598h10.473v57.598H458.702z"/>
		<path d="M525.106,510.979l-8.33,25.229h-10.711l27.252-80.209h12.496l27.371,80.209h-11.068l-8.568-25.229H525.106z
			 M551.407,502.885l-7.855-23.086c-1.785-5.236-2.975-9.996-4.164-14.637h-0.238c-1.189,4.76-2.5,9.639-4.047,14.518l-7.854,23.205
			H551.407z"/>
		<path d="M584.256,494.199c0-5.951-0.119-10.83-0.477-15.59h9.283l0.596,9.52h0.236c2.857-5.475,9.521-10.828,19.041-10.828
			c7.973,0,20.35,4.76,20.35,24.514v34.393h-10.473v-33.203c0-9.281-3.451-17.018-13.328-17.018
			c-6.902,0-12.258,4.881-14.041,10.711c-0.477,1.309-0.715,3.094-0.715,4.879v34.631h-10.473V494.199z"/>
		<path d="M682.2,536.207l-0.834-7.26h-0.357c-3.213,4.521-9.4,8.568-17.611,8.568c-11.662,0-17.613-8.211-17.613-16.541
			c0-13.924,12.377-21.541,34.631-21.422v-1.189c0-4.76-1.309-13.328-13.09-13.328c-5.355,0-10.949,1.666-14.996,4.283l-2.379-6.9
			c4.76-3.096,11.662-5.117,18.922-5.117c17.611,0,21.896,12.018,21.896,23.563v21.539c0,4.998,0.238,9.877,0.951,13.805H682.2z
			 M680.653,506.813c-11.426-0.238-24.396,1.785-24.396,12.971c0,6.783,4.521,9.998,9.877,9.998c7.498,0,12.258-4.762,13.924-9.641
			c0.357-1.07,0.596-2.26,0.596-3.332V506.813z"/>
		<path d="M707.668,451.715h10.473v84.492h-10.473V451.715z"/>
		<path d="M739.561,478.609l12.615,34.035c1.309,3.807,2.736,8.33,3.689,11.781h0.238c1.07-3.451,2.26-7.855,3.688-12.02
			l11.426-33.797h11.066l-15.709,41.057c-7.496,19.754-12.613,29.869-19.754,36.057c-5.117,4.523-10.234,6.307-12.852,6.783
			l-2.619-8.807c2.619-0.832,6.07-2.498,9.164-5.117c2.855-2.26,6.426-6.307,8.807-11.662c0.475-1.07,0.832-1.904,0.832-2.498
			c0-0.596-0.238-1.428-0.713-2.738l-21.303-53.074H739.561z"/>
		<path d="M785.262,530.137l26.063-33.916c2.498-3.094,4.879-5.83,7.496-8.924v-0.238h-31.178v-8.449h43.912l-0.119,6.545
			l-25.705,33.439c-2.381,3.213-4.76,6.07-7.379,9.045v0.238h33.678v8.33h-46.768V530.137z"/>
		<path d="M847.743,509.313c0.238,14.16,9.281,19.992,19.754,19.992c7.498,0,12.02-1.309,15.947-2.975l1.785,7.496
			c-3.689,1.666-9.998,3.57-19.16,3.57c-17.732,0-28.322-11.662-28.322-29.037s10.234-31.059,27.014-31.059
			c18.803,0,23.801,16.541,23.801,27.133c0,2.141-0.238,3.807-0.357,4.879H847.743z M878.446,501.814
			c0.117-6.664-2.738-17.018-14.52-17.018c-10.592,0-15.232,9.758-16.064,17.018H878.446z"/>
		<path d="M901.534,496.578c0-6.783-0.119-12.613-0.477-17.969h9.164l0.357,11.305h0.475c2.619-7.734,8.926-12.613,15.947-12.613
			c1.189,0,2.023,0.117,2.975,0.355v9.879c-1.07-0.238-2.141-0.357-3.57-0.357c-7.377,0-12.613,5.592-14.041,13.447
			c-0.238,1.428-0.477,3.094-0.477,4.879v30.703h-10.354V496.578z"/>
	</g>
</g>
</svg>
