<?xml version="1.0" encoding="utf-8"?>
<!DOCTYPE svg PUBLIC "-//W3C//DTD SVG 1.1//EN" "http://www.w3.org/Graphics/SVG/1.1/DTD/svg11.dtd">
<svg version="1.1" xmlns="http://www.w3.org/2000/svg" xmlns:xlink="http://www.w3.org/1999/xlink" x="0px" y="0px" width="108px" height="108px" viewBox="0 0 108 108" enable-background="new 0 0 108 108" xml:space="preserve">
	<g>
		<!-- foreground shadow -->
		<polygon fill="#2E7D32" points="108,73.08 108,108 74.67,108 24.121,41.3 54.334,38.334 83.88,41.311"/>
		<!-- foreground shadow -->
		<path fill="#FFFFFF" d="M83.882,41.307l-5.466,7.214c-4.607-3.503-9.98-6.038-15.826-7.308 c-2.775-0.602-5.652-0.919-8.597-0.919c-2.947,0-5.822,0.317-8.598,0.919c-5.838,1.27-11.211,3.805-15.811,7.3l-5.467-7.214 c0.039-0.03,0.078-0.062,0.116-0.086c8.28-6.253,18.587-9.949,29.759-9.949c11.171,0,21.479,3.696,29.757,9.949 C83.797,41.237,83.843,41.275,83.882,41.307z"/>
		<path fill="#FFFFFF" d="M62.466,69.564l-8.441,11.147L54,80.736l-8.473-11.18c2.35-1.785,5.28-2.845,8.466-2.845 C57.177,66.713,60.116,67.771,62.466,69.564z"/>
		<path fill="#FFFFFF" d="M73.273,55.309l-5.674,7.49c-3.779-2.883-8.496-4.592-13.605-4.592c-5.104,0-9.812,1.709-13.592,4.584 l-5.675-7.498c5.357-4.075,12.037-6.494,19.267-6.494C61.23,48.799,67.917,51.218,73.273,55.309z"/>
	</g>
</svg>
