<?xml version="1.0" encoding="utf-8"?>
<!DOCTYPE svg PUBLIC "-//W3C//DTD SVG 1.1//EN" "http://www.w3.org/Graphics/SVG/1.1/DTD/svg11.dtd">
<svg version="1.1" xmlns="http://www.w3.org/2000/svg" xmlns:xlink="http://www.w3.org/1999/xlink" x="0px" y="0px" width="1000px" height="1000px" viewBox="0 0 1000 1000" enable-background="new 0 0 1000 1000" xml:space="preserve">
	<g>
		<!-- background -->
		<path fill="#308234" d="M961.348,499c0,16.351-0.854,32.486-2.451,48.294c-19.982,191.41-156.871,347.969-337.984,397.023 c-38.578,10.477-79.076,16.029-120.963,16.029C245.208,960.348,38.655,753.771,38.655,499 c0-254.773,206.553-461.346,461.295-461.346C754.795,37.655,961.348,244.227,961.348,499z"/>
		<!-- foreground shadow -->
		<path fill="#2E7D32" d="M958.897,547.295c-19.982,191.41-156.871,347.969-337.984,397.023L180.667,363.272l322.914-31.734 l315.652,31.848L958.897,547.295z"/>
		<!-- white filler -->
		<path fill="#FFFFFF" d="M819.295,363.344l-58.404,77.096c-49.244-37.432-106.658-64.521-169.111-78.098 c-29.656-6.428-60.4-9.818-91.861-9.818c-31.494,0-62.215,3.391-91.871,9.818c-62.381,13.576-119.795,40.666-168.945,78.014 l-58.414-77.096c0.416-0.322,0.834-0.656,1.24-0.918c88.48-66.816,198.613-106.322,317.99-106.322 c119.367,0,229.5,39.506,317.969,106.322C818.389,362.604,818.879,363.01,819.295,363.344z"/>
		<path fill="#FFFFFF" d="M590.454,665.336l-90.201,119.139l-0.26,0.25l-90.537-119.473 c25.107-19.076,56.424-30.387,90.463-30.387C533.938,634.865,565.334,646.176,590.454,665.336z"/>
		<path fill="#FFFFFF" d="M705.94,512.982l-60.641,80.049c-40.371-30.805-90.785-49.078-145.381-49.078 c-54.535,0-104.842,18.273-145.236,48.992l-60.639-80.129c57.248-43.535,128.623-69.404,205.875-69.404 C577.243,443.413,648.692,469.282,705.94,512.982z"/>
	</g>
</svg>
