<?xml version="1.0" encoding="utf-8"?>
<!--
  ~ WiFiAnalyzer
  ~ Copyright (C) 2018  VREM Software Development <VREMSoftwareDevelopment@gmail.com>
  ~
  ~ This program is free software: you can redistribute it and/or modify
  ~ it under the terms of the GNU General Public License as published by
  ~ the Free Software Foundation, either version 3 of the License, or
  ~ (at your option) any later version.
  ~
  ~ This program is distributed in the hope that it will be useful,
  ~ but WITHOUT ANY WARRANTY; without even the implied warranty of
  ~ MERCHANTABILITY or FITNESS FOR A PARTICULAR PURPOSE.  See the
  ~ GNU General Public License for more details.
  ~
  ~ You should have received a copy of the GNU General Public License
  ~ along with this program.  If not, see <http://www.gnu.org/licenses/>
  -->
<!DOCTYPE svg PUBLIC "-//W3C//DTD SVG 1.1//EN" "http://www.w3.org/Graphics/SVG/1.1/DTD/svg11.dtd">
<svg enable-background="new 0 0 192 192" height="192px" version="1.1" viewBox="0 0 192 192" width="192px" x="0px" xmlns="http://www.w3.org/2000/svg" y="0px" xml:space="preserve">
	<g>
		<!-- background -->
        <path
            d="M192,96c0,3.402-0.178,6.76-0.51,10.05c-4.158,39.829-32.643,72.407-70.33,82.615 c-8.027,2.181-16.455,3.335-25.171,3.335C42.98,192,0,149.016,0,96C0,42.985,42.98,0,95.989,0C149.02,0,192,42.985,192,96z"
            fill="#308234" />
        <!-- foreground shadow -->
        <path
            d="M191.49,106.049c-4.157,39.832-32.643,72.407-70.331,82.616l-25.161-33.21l-4.688-6.188l-14.147-18.674 l-11.4-15.044l-1.767-2.333L29.552,67.756l0.004-0.002c0.085-0.066,0.173-0.137,0.258-0.191 C48.226,53.661,71.142,45.44,95.984,45.44c24.831,0,47.741,8.215,66.146,22.108c0.007,0.005,0.013,0.011,0.019,0.015l0.279,0.219 l0.002,0.002L191.49,106.049z"
            fill="#2E7D32" />
        <!-- white filler -->
        <path
            d="M162.439,67.771l-0.01,0.012l-12.144,16.031c-10.246-7.789-22.194-13.426-35.188-16.252 c-6.173-1.338-12.568-2.043-19.115-2.043c-6.555,0-12.947,0.707-19.117,2.043c-12.98,2.826-24.929,8.463-35.156,16.235 L29.556,67.754c0.085-0.066,0.173-0.137,0.258-0.191C48.226,53.661,71.142,45.44,95.984,45.44 c24.831,0,47.741,8.215,66.146,22.108c0.007,0.005,0.013,0.011,0.019,0.015C162.252,67.617,162.354,67.702,162.439,67.771z"
            fill="#FFFFFF" />
        <path
            d="M114.822,130.611l-18.771,24.791l-0.055,0.053l-18.839-24.859c5.224-3.971,11.74-6.324,18.823-6.324 C103.063,124.271,109.596,126.625,114.822,130.611z"
            fill="#FFFFFF" />
        <path
            d="M138.854,98.909l-12.619,16.657c-8.399-6.41-18.891-10.213-30.251-10.213 c-11.348,0-21.816,3.803-30.222,10.194L53.143,98.875c11.913-9.059,26.765-14.442,42.84-14.442 C112.073,84.434,126.939,89.816,138.854,98.909z"
            fill="#FFFFFF" />
	</g>
</svg>
