<?xml version="1.0" encoding="utf-8"?>
<!--
  ~ WiFiAnalyzer
  ~ Copyright (C) 2018  VREM Software Development <VREMSoftwareDevelopment@gmail.com>
  ~
  ~ This program is free software: you can redistribute it and/or modify
  ~ it under the terms of the GNU General Public License as published by
  ~ the Free Software Foundation, either version 3 of the License, or
  ~ (at your option) any later version.
  ~
  ~ This program is distributed in the hope that it will be useful,
  ~ but WITHOUT ANY WARRANTY; without even the implied warranty of
  ~ MERCHANTABILITY or FITNESS FOR A PARTICULAR PURPOSE.  See the
  ~ GNU General Public License for more details.
  ~
  ~ You should have received a copy of the GNU General Public License
  ~ along with this program.  If not, see <http://www.gnu.org/licenses/>
  -->
<!DOCTYPE svg PUBLIC "-//W3C//DTD SVG 1.1//EN" "http://www.w3.org/Graphics/SVG/1.1/DTD/svg11.dtd">
<svg enable-background="new 0 0 1000 1000" height="1000px"  version="1.1" viewBox="0 0 1000 1000" width="1000px" x="0px" xmlns="http://www.w3.org/2000/svg" y="0px" xml:space="preserve">
	<g>
		<!-- background -->
        <path
            d="M961.348,499c0,16.351-0.854,32.486-2.451,48.294c-19.982,191.41-156.871,347.969-337.984,397.023 c-38.578,10.477-79.076,16.029-120.963,16.029C245.208,960.348,38.655,753.771,38.655,499 c0-254.773,206.553-461.346,461.295-461.346C754.795,37.655,961.348,244.227,961.348,499z"
            fill="#308234" />
        <!-- foreground shadow -->
        <path
            d="M958.897,547.295c-19.982,191.41-156.871,347.969-337.984,397.023L180.667,363.272l322.914-31.734 l315.652,31.848L958.897,547.295z"
            fill="#2E7D32" />
        <!-- white filler -->
        <path
            d="M819.295,363.344l-58.404,77.096c-49.244-37.432-106.658-64.521-169.111-78.098 c-29.656-6.428-60.4-9.818-91.861-9.818c-31.494,0-62.215,3.391-91.871,9.818c-62.381,13.576-119.795,40.666-168.945,78.014 l-58.414-77.096c0.416-0.322,0.834-0.656,1.24-0.918c88.48-66.816,198.613-106.322,317.99-106.322 c119.367,0,229.5,39.506,317.969,106.322C818.389,362.604,818.879,363.01,819.295,363.344z"
            fill="#FFFFFF" />
        <path
            d="M590.454,665.336l-90.201,119.139l-0.26,0.25l-90.537-119.473 c25.107-19.076,56.424-30.387,90.463-30.387C533.938,634.865,565.334,646.176,590.454,665.336z"
            fill="#FFFFFF" />
        <path
            d="M705.94,512.982l-60.641,80.049c-40.371-30.805-90.785-49.078-145.381-49.078 c-54.535,0-104.842,18.273-145.236,48.992l-60.639-80.129c57.248-43.535,128.623-69.404,205.875-69.404 C577.243,443.413,648.692,469.282,705.94,512.982z"
            fill="#FFFFFF" />
	</g>
</svg>
