<?xml version="1.0" encoding="utf-8"?>
<!-- Generator: Adobe Illustrator 15.1.0, SVG Export Plug-In . SVG Version: 6.00 Build 0)  -->
<!DOCTYPE svg PUBLIC "-//W3C//DTD SVG 1.1//EN" "http://www.w3.org/Graphics/SVG/1.1/DTD/svg11.dtd">
<svg version="1.1" id="Layer_2" xmlns="http://www.w3.org/2000/svg" xmlns:xlink="http://www.w3.org/1999/xlink" x="0px" y="0px"
	 width="1000px" height="1000px" viewBox="0 0 1000 1000" enable-background="new 0 0 1000 1000" xml:space="preserve">
<g>
	<g>
		<path fill="#2E7D32" d="M710.153,439.651c0,7.451-0.387,14.796-1.117,21.997c-9.1,87.192-71.455,158.511-153.957,180.853
			c-17.57,4.774-36.02,7.305-55.102,7.305c-116.039,0-210.129-94.101-210.129-210.154c0-116.055,94.09-210.15,210.129-210.15
			C616.067,229.501,710.153,323.597,710.153,439.651z"/>
		<g>
			<path fill="#296B29" d="M709.036,461.648c-9.1,87.192-71.455,158.511-153.957,180.853L354.538,377.824l147.094-14.458
				l143.787,14.512L709.036,461.648z"/>
		</g>
		<g>
			<g>
				<path fill="#FFFFFF" d="M645.45,377.858l-26.607,35.117c-22.43-17.052-48.586-29.386-77.035-35.578
					c-13.506-2.926-27.512-4.471-41.844-4.471c-14.344,0-28.342,1.545-41.848,4.471c-28.416,6.192-54.572,18.526-76.961,35.539
					l-26.607-35.117c0.188-0.146,0.379-0.3,0.564-0.422c40.305-30.436,90.473-48.428,144.852-48.428
					c54.375,0,104.543,17.992,144.844,48.428C645.032,377.52,645.258,377.707,645.45,377.858z"/>
				<path fill="#FFFFFF" d="M541.206,515.425l-41.09,54.268l-0.117,0.112l-41.24-54.423c11.436-8.688,25.699-13.841,41.205-13.841
					C515.461,501.541,529.762,506.693,541.206,515.425z"/>
				<path fill="#FFFFFF" d="M593.809,446.019l-27.621,36.466c-18.389-14.031-41.354-22.355-66.225-22.355
					c-24.842,0-47.756,8.324-66.156,22.317l-27.621-36.501c26.072-19.83,58.592-31.616,93.777-31.616
					C535.184,414.329,567.733,426.115,593.809,446.019z"/>
			</g>
		</g>
	</g>
	<g>
		<path d="M266.069,750.62l-15.383-60.629h8.275l7.197,30.674c1.799,7.557,3.418,15.112,4.496,20.96h0.18
			c0.99-6.027,2.879-13.224,4.947-21.05l8.096-30.584h8.188l7.375,30.765c1.709,7.195,3.328,14.393,4.229,20.778h0.18
			c1.26-6.656,2.969-13.402,4.857-20.959l8.006-30.584h8.006l-17.182,60.629h-8.186l-7.646-31.574
			c-1.889-7.735-3.148-13.672-3.957-19.788h-0.18c-1.08,6.026-2.43,11.964-4.678,19.788l-8.635,31.574H266.069z"/>
		<path d="M339.383,694.85c0.092,2.698-1.889,4.857-5.037,4.857c-2.789,0-4.768-2.159-4.768-4.857c0-2.788,2.07-4.947,4.947-4.947
			C337.495,689.902,339.383,692.062,339.383,694.85z M330.569,750.62v-43.537h7.916v43.537H330.569z"/>
		<path d="M351.889,689.991h32.65v6.568h-24.826v20.148h22.938v6.476h-22.938v27.437h-7.824V689.991z"/>
		<path d="M401.905,694.85c0.09,2.698-1.889,4.857-5.037,4.857c-2.789,0-4.768-2.159-4.768-4.857c0-2.788,2.068-4.947,4.947-4.947
			C400.016,689.902,401.905,692.062,401.905,694.85z M393.088,750.62v-43.537h7.918v43.537H393.088z"/>
		<path d="M443.282,731.551l-6.295,19.069h-8.096l20.598-60.629h9.445l20.691,60.629h-8.367l-6.477-19.069H443.282z
			 M463.165,725.433l-5.939-17.45c-1.35-3.958-2.248-7.556-3.146-11.063h-0.182c-0.898,3.598-1.889,7.285-3.059,10.974l-5.936,17.54
			H463.165z"/>
		<path d="M487.993,718.868c0-4.499-0.09-8.187-0.359-11.785h7.018l0.449,7.196h0.18c2.16-4.139,7.197-8.185,14.393-8.185
			c6.027,0,15.381,3.598,15.381,18.528v25.997h-7.916v-25.097c0-7.017-2.607-12.864-10.074-12.864
			c-5.217,0-9.266,3.689-10.613,8.097c-0.359,0.989-0.541,2.339-0.541,3.688v26.177h-7.916V718.868z"/>
		<path d="M562.028,750.62l-0.631-5.488h-0.271c-2.428,3.418-7.104,6.478-13.311,6.478c-8.816,0-13.313-6.206-13.313-12.503
			c0-10.525,9.354-16.282,26.176-16.192v-0.899c0-3.598-0.99-10.074-9.895-10.074c-4.047,0-8.275,1.259-11.336,3.237l-1.799-5.216
			c3.6-2.34,8.816-3.867,14.305-3.867c13.311,0,16.551,9.083,16.551,17.811v16.28c0,3.778,0.18,7.466,0.719,10.435H562.028z
			 M560.858,728.401c-8.637-0.18-18.441,1.35-18.441,9.805c0,5.127,3.418,7.558,7.467,7.558c5.668,0,9.264-3.6,10.525-7.288
			c0.27-0.809,0.449-1.707,0.449-2.519V728.401z"/>
		<path d="M581.278,686.755h7.916v63.865h-7.916V686.755z"/>
		<path d="M605.385,707.083l9.537,25.727c0.986,2.877,2.066,6.297,2.787,8.906h0.18c0.809-2.609,1.709-5.938,2.787-9.086
			l8.637-25.547h8.365l-11.873,31.035c-5.666,14.931-9.535,22.576-14.934,27.253c-3.867,3.419-7.734,4.768-9.713,5.128l-1.98-6.656
			c1.98-0.629,4.59-1.89,6.928-3.869c2.158-1.707,4.857-4.767,6.656-8.814c0.359-0.809,0.629-1.439,0.629-1.889
			s-0.18-1.078-0.539-2.069l-16.102-40.118H605.385z"/>
		<path d="M639.93,746.032l19.701-25.637c1.887-2.338,3.686-4.407,5.664-6.746v-0.179h-23.566v-6.388h33.193l-0.092,4.947
			l-19.43,25.275c-1.799,2.43-3.596,4.589-5.576,6.838v0.18h25.457v6.297H639.93V746.032z"/>
		<path d="M687.157,730.292c0.182,10.703,7.016,15.111,14.932,15.111c5.668,0,9.086-0.989,12.055-2.25l1.35,5.668
			c-2.789,1.259-7.559,2.698-14.482,2.698c-13.404,0-21.408-8.815-21.408-21.948c0-13.135,7.736-23.477,20.418-23.477
			c14.213,0,17.992,12.502,17.992,20.509c0,1.618-0.182,2.878-0.271,3.688H687.157z M710.366,724.623
			c0.088-5.037-2.07-12.863-10.975-12.863c-8.008,0-11.516,7.376-12.145,12.863H710.366z"/>
		<path d="M727.817,720.665c0-5.127-0.09-9.534-0.359-13.582h6.926l0.271,8.545h0.357c1.98-5.847,6.746-9.533,12.055-9.533
			c0.898,0,1.529,0.088,2.248,0.268v7.469c-0.809-0.182-1.617-0.271-2.699-0.271c-5.574,0-9.533,4.227-10.613,10.165
			c-0.18,1.079-0.359,2.339-0.359,3.688v23.208h-7.826V720.665z"/>
	</g>
</g>
</svg>
